<svg width="44" height="22" viewBox="0 0 44 22" fill="none" xmlns="http://www.w3.org/2000/svg">
<path d="M39.0644 4.098H44V0H29.733C29.4735 4.2521 25.9028 7.626 21.5381 7.626C17.1734 7.626 13.6027 4.2521 13.3432 0H-1.49006e-05L-1.52588e-05 4.098H4.07406C4.29203 4.9402 4.57747 5.767 4.92001 6.5784C5.30925 7.4925 5.77116 8.3655 6.30572 9.1923L2.74025 12.7203L8.35573 18.2768L11.9264 14.7437C12.7516 15.2624 13.6235 15.7143 14.5317 16.0943C15.5541 16.5205 16.6077 16.8543 17.682 17.0854V22H25.6329V17.0443C26.645 16.8133 27.6362 16.4949 28.6015 16.0943C29.5773 15.6886 30.5062 15.2007 31.3833 14.6359L34.8917 18.1074L40.5124 12.5457L36.9469 9.0177C37.4348 8.2423 37.8552 7.4258 38.2184 6.5784C38.561 5.767 38.8464 4.9402 39.0644 4.098Z" fill="#1C2752"/>
</svg>
