<svg width="20" height="19" viewBox="0 0 20 19" fill="none" xmlns="http://www.w3.org/2000/svg">
<path d="M13.6585 1.54725C14.7231 1.55031 15.7431 1.95889 16.4958 2.68376C17.2486 3.40863 17.6729 4.39088 17.6761 5.41599V13.1527C17.6729 14.1778 17.2486 15.16 16.4958 15.8849C15.7431 16.6098 14.7231 17.0183 13.6585 17.0214H5.6243C4.55976 17.0183 3.53973 16.6098 2.78698 15.8849C2.03423 15.16 1.60994 14.1778 1.60676 13.1527V5.41599C1.60994 4.39088 2.03423 3.40863 2.78698 2.68376C3.53973 1.95889 4.55976 1.55031 5.6243 1.54725H13.6585ZM13.6585 0H5.6243C2.53087 0 0 2.43713 0 5.41599V13.1527C0 16.1315 2.53087 18.5686 5.6243 18.5686H13.6585C16.752 18.5686 19.2828 16.1315 19.2828 13.1527V5.41599C19.2828 2.43713 16.752 0 13.6585 0Z" fill="white"/>
</svg>
