<svg width="172" height="27" viewBox="0 0 172 27" fill="none" xmlns="http://www.w3.org/2000/svg">
<path d="M0.00720215 26.5002V1.82523H11.3822C14.0888 1.82523 16.1772 2.39693 17.6472 3.54023C19.1172 4.68353 19.8522 6.24693 19.8522 8.23023C19.8522 9.70023 19.4089 10.9485 18.5222 11.9752C17.6588 13.0019 16.4688 13.6902 14.9522 14.0402V13.4802C16.7255 13.7835 18.0905 14.4602 19.0472 15.5102C20.0272 16.5369 20.5172 17.8785 20.5172 19.5352C20.5172 21.7285 19.7355 23.4435 18.1722 24.6802C16.6322 25.8935 14.4972 26.5002 11.7672 26.5002H0.00720215ZM5.2222 22.4402H11.1022C12.4555 22.4402 13.4939 22.1835 14.2172 21.6702C14.9405 21.1569 15.3022 20.3402 15.3022 19.2202C15.3022 18.0769 14.9405 17.2602 14.2172 16.7702C13.4939 16.2569 12.4555 16.0002 11.1022 16.0002H5.2222V22.4402ZM5.2222 11.9752H10.4022C11.8255 11.9752 12.8755 11.7185 13.5522 11.2052C14.2289 10.6919 14.5672 9.92194 14.5672 8.89524C14.5672 7.89194 14.2289 7.13353 13.5522 6.62023C12.8755 6.10693 11.8255 5.85023 10.4022 5.85023H5.2222V11.9752ZM24.0273 26.5002V0.740234H29.3123V26.5002H24.0273ZM40.0718 26.8852C37.8551 26.8852 36.2101 26.2785 35.1368 25.0652C34.0635 23.8285 33.5268 21.9619 33.5268 19.4652V8.75523H38.8118V19.4652C38.8118 20.5852 39.0335 21.4135 39.4768 21.9502C39.9435 22.4869 40.6551 22.7552 41.6118 22.7552C42.6618 22.7552 43.525 22.3935 44.202 21.6702C44.902 20.9235 45.252 19.9319 45.252 18.6952V8.75523H50.537V26.5002H45.392V23.1052H45.882C45.345 24.2952 44.575 25.2285 43.572 25.9052C42.5918 26.5585 41.4251 26.8852 40.0718 26.8852ZM63.817 26.8852C60.737 26.8852 58.333 26.0569 56.607 24.4002C54.88 22.7435 54.017 20.4919 54.017 17.6452C54.017 15.8019 54.378 14.1919 55.102 12.8152C55.848 11.4385 56.875 10.3652 58.182 9.59523C59.512 8.80193 61.063 8.40524 62.837 8.40524C64.587 8.40524 66.045 8.77853 67.212 9.52523C68.402 10.2719 69.288 11.3219 69.872 12.6752C70.478 14.0052 70.782 15.5569 70.782 17.3302V18.5552H58.357V15.9302H66.932L66.337 16.4202C66.337 14.9502 66.033 13.8419 65.427 13.0952C64.843 12.3252 63.992 11.9402 62.872 11.9402C61.635 11.9402 60.678 12.3952 60.002 13.3052C59.348 14.2152 59.022 15.5219 59.022 17.2252V17.7852C59.022 19.5119 59.442 20.7952 60.282 21.6352C61.145 22.4752 62.382 22.8952 63.992 22.8952C64.948 22.8952 65.847 22.7785 66.687 22.5452C67.55 22.2885 68.367 21.8919 69.137 21.3552L70.607 24.8552C69.72 25.5085 68.693 26.0102 67.527 26.3602C66.383 26.7102 65.147 26.8852 63.817 26.8852ZM86.42 26.8852C83.783 26.8852 81.52 26.3602 79.63 25.3102C77.74 24.2602 76.281 22.7902 75.255 20.9002C74.251 18.9869 73.75 16.7352 73.75 14.1452C73.75 11.5552 74.251 9.31523 75.255 7.42523C76.281 5.53523 77.74 4.06523 79.63 3.01523C81.52 1.96523 83.783 1.44023 86.42 1.44023C88.123 1.44023 89.675 1.68523 91.075 2.17523C92.475 2.64193 93.665 3.33023 94.645 4.24023L92.93 8.54523C91.856 7.70523 90.83 7.11023 89.85 6.76023C88.893 6.41023 87.808 6.23523 86.595 6.23523C84.285 6.23523 82.511 6.92353 81.275 8.30023C80.061 9.65353 79.455 11.6019 79.455 14.1452C79.455 16.6885 80.061 18.6485 81.275 20.0252C82.511 21.4019 84.285 22.0902 86.595 22.0902C87.808 22.0902 88.893 21.9152 89.85 21.5652C90.83 21.2152 91.856 20.6202 92.93 19.7802L94.645 24.0852C93.665 24.9719 92.475 25.6602 91.075 26.1502C89.675 26.6402 88.123 26.8852 86.42 26.8852ZM105.264 26.8852C103.374 26.8852 101.729 26.5119 100.329 25.7652C98.953 24.9952 97.879 23.9219 97.109 22.5452C96.363 21.1685 95.989 19.5235 95.989 17.6102C95.989 15.7202 96.363 14.0869 97.109 12.7102C97.879 11.3335 98.953 10.2719 100.329 9.52523C101.729 8.77853 103.374 8.40524 105.264 8.40524C107.154 8.40524 108.799 8.77853 110.199 9.52523C111.599 10.2719 112.673 11.3335 113.419 12.7102C114.189 14.0869 114.574 15.7202 114.574 17.6102C114.574 19.5235 114.189 21.1685 113.419 22.5452C112.673 23.9219 111.599 24.9952 110.199 25.7652C108.799 26.5119 107.154 26.8852 105.264 26.8852ZM105.264 22.8952C106.478 22.8952 107.434 22.4635 108.134 21.6002C108.858 20.7369 109.219 19.4069 109.219 17.6102C109.219 15.8135 108.858 14.4952 108.134 13.6552C107.434 12.8152 106.478 12.3952 105.264 12.3952C104.051 12.3952 103.083 12.8152 102.359 13.6552C101.659 14.4952 101.309 15.8135 101.309 17.6102C101.309 19.4069 101.659 20.7369 102.359 21.6002C103.083 22.4635 104.051 22.8952 105.264 22.8952ZM144.091 26.8852C142.551 26.8852 141.198 26.5119 140.031 25.7652C138.865 25.0185 137.955 23.9569 137.301 22.5802C136.648 21.2035 136.321 19.5469 136.321 17.6102C136.321 15.6969 136.648 14.0519 137.301 12.6752C137.955 11.2985 138.865 10.2485 140.031 9.52523C141.198 8.77853 142.551 8.40524 144.091 8.40524C145.515 8.40524 146.786 8.75523 147.906 9.45523C149.05 10.1319 149.796 11.0535 150.146 12.2202H149.761L150.181 8.75523H155.256C155.186 9.52523 155.116 10.3069 155.046 11.1002C155 11.8702 154.976 12.6285 154.976 13.3752V26.5002H149.726L149.691 23.1752H150.111C149.738 24.2952 148.991 25.1935 147.871 25.8702C146.751 26.5469 145.491 26.8852 144.091 26.8852ZM145.701 22.8952C146.915 22.8952 147.895 22.4635 148.641 21.6002C149.388 20.7369 149.761 19.4069 149.761 17.6102C149.761 15.8135 149.388 14.4952 148.641 13.6552C147.895 12.8152 146.915 12.3952 145.701 12.3952C144.488 12.3952 143.508 12.8152 142.761 13.6552C142.015 14.4952 141.641 15.8135 141.641 17.6102C141.641 19.4069 142.003 20.7369 142.726 21.6002C143.473 22.4635 144.465 22.8952 145.701 22.8952ZM159.276 26.5002V13.4452C159.276 12.6752 159.252 11.8935 159.206 11.1002C159.182 10.3069 159.124 9.52523 159.031 8.75523H164.106L164.701 13.9352H163.896C164.129 12.6752 164.502 11.6369 165.016 10.8202C165.552 10.0035 166.206 9.39693 166.976 9.00023C167.769 8.60353 168.667 8.40524 169.671 8.40524C170.114 8.40524 170.464 8.42853 170.721 8.47523C170.977 8.49854 171.234 8.55693 171.491 8.65023L171.456 13.3052C170.966 13.0952 170.546 12.9669 170.196 12.9202C169.869 12.8502 169.449 12.8152 168.936 12.8152C167.956 12.8152 167.139 13.0019 166.486 13.3752C165.856 13.7485 165.377 14.2969 165.051 15.0202C164.747 15.7435 164.596 16.6185 164.596 17.6452V26.5002H159.276Z" fill="white"/>
</svg>
