<svg width="44" height="23" viewBox="0 0 44 23" fill="none" xmlns="http://www.w3.org/2000/svg">
<path d="M39.0644 4.598H44V0.5H29.733C29.4735 4.7521 25.9028 8.126 21.5381 8.126C17.1734 8.126 13.6027 4.7521 13.3432 0.5H-1.49006e-05L-1.52588e-05 4.598H4.07406C4.29203 5.4402 4.57747 6.267 4.92001 7.0784C5.30925 7.9925 5.77116 8.8655 6.30572 9.6923L2.74025 13.2203L8.35573 18.7768L11.9264 15.2437C12.7516 15.7624 13.6235 16.2143 14.5317 16.5943C15.5541 17.0205 16.6077 17.3543 17.682 17.5854V22.5H25.6329V17.5443C26.645 17.3133 27.6362 16.9949 28.6015 16.5943C29.5773 16.1886 30.5062 15.7007 31.3833 15.1359L34.8917 18.6074L40.5124 13.0457L36.9469 9.5177C37.4348 8.7423 37.8552 7.9258 38.2184 7.0784C38.561 6.267 38.8464 5.4402 39.0644 4.598Z" fill="white"/>
</svg>
