<svg width="23" height="12" viewBox="0 0 23 12" fill="none" xmlns="http://www.w3.org/2000/svg">
<path d="M19.3207 2.96914V7.35937C19.3207 7.6573 19.0837 7.89902 18.7916 7.89902H18.4167C18.1246 7.89902 17.8875 7.6573 17.8875 7.35937V1.82803C16.8016 1.09163 15.5834 0.540751 14.277 0.225952V7.84281C14.277 8.14073 14.0399 8.38244 13.7478 8.38244H9.61353C9.32137 8.38244 9.08435 8.14073 9.08435 7.84281V0.225952C7.79446 0.540751 6.57624 1.09725 5.49031 1.82803V7.35937C5.49031 7.6573 5.25328 7.89902 4.96112 7.89902H4.58629C4.29413 7.89902 4.0571 7.6573 4.0571 7.35937V2.96914C1.84115 5.06026 0.446533 8.04517 0.446533 11.3673H22.9258C22.9313 8.04517 21.5422 5.06026 19.3207 2.96914Z" fill="#FFB342"/>
</svg>
